<svg width="244" height="49" viewBox="0 0 244 49" fill="none" xmlns="http://www.w3.org/2000/svg">
<path d="M44.502 3.7832H47.3438V4.01758H44.4434L34.7754 45.7656H37.5293V46H34.7168L34.043 48.8418L33.8086 48.7832L34.4824 46H29.4141L30.0586 48.7832L29.8242 48.8418L29.1797 46H26.3379V45.7656H29.1211L23.7598 22.8555L18.4277 45.7656H21.1816V46H18.3691L17.6953 48.8418L17.4902 48.7832L18.1348 46H12.9785L13.623 48.7832L13.3887 48.8418L12.7441 46H9.90234V45.7656H12.6855L2.90039 4.01758H0V3.7832H2.8418L2.19727 0.970703L2.40234 0.941406L3.07617 3.7832H3.10547H9.84375L9.19922 0.970703L9.43359 0.941406L10.1074 3.7832H12.832V4.01758H10.166L15.498 26.9863L20.8594 4.01758H18.1641V3.7832H20.918L21.5625 0.941406L21.7969 0.970703L21.1523 3.7832H26.3086L25.6348 0.970703L25.8691 0.941406L26.543 3.7832H29.3555V4.01758H26.6016L31.9336 26.8984L37.2949 4.01758H34.5117V3.7832H37.3535L37.998 0.941406L38.2324 0.970703L37.5879 3.7832H44.2383H44.2676L44.9414 0.941406L45.1465 0.970703L44.502 3.7832ZM72.6562 34.3984H61.6699L63.8379 36.625L68.5254 41.4004C69.5508 40.3457 70.4297 39.1738 71.1035 37.8555L71.3086 37.9727C70.6055 39.3203 69.7266 40.5215 68.6719 41.5762L72.9492 45.9707L72.7734 46.1465L68.4961 41.752C66.7383 43.4805 64.6875 44.6816 62.373 45.3848H62.3438C62.2852 45.4141 62.2559 45.4141 62.2266 45.4141C62.2266 45.4141 62.2266 45.4141 62.1973 45.4141C62.1973 45.4434 62.1973 45.4434 62.1973 45.4434C62.0215 45.4727 61.8164 45.5312 61.6113 45.5898H61.5527C61.5527 45.5898 61.5527 45.5898 61.5234 45.6191H61.4941C61.4941 45.6191 61.4941 45.6191 61.4648 45.6191C61.3477 45.6484 61.2305 45.6777 61.1133 45.707C61.0547 45.707 60.9961 45.707 60.9375 45.7363C60.791 45.7656 60.6738 45.7656 60.5859 45.7949C60.498 45.7949 60.4395 45.8242 60.4102 45.8242C59.9121 45.9121 59.4434 45.9414 58.9453 45.9707C58.6816 46 58.418 46 58.125 46C55.3711 46 52.7637 45.2383 50.3027 43.7441C50.3027 43.7441 50.3027 43.7441 50.2734 43.7441L50.0098 43.5684C49.834 43.4512 49.6875 43.334 49.5117 43.2168C47.5195 41.7812 45.9961 39.9648 44.8828 37.8262C43.7988 35.6582 43.2422 33.373 43.2422 30.9414C43.2422 28.4805 43.7988 26.1367 44.9414 23.9102C45.0879 23.6465 45.2344 23.3828 45.4102 23.1191C45.4688 23.002 45.5566 22.8555 45.6738 22.6797L45.7031 22.6504C45.791 22.5039 45.8789 22.3574 45.9961 22.2109C45.9961 22.2109 45.9961 22.2109 45.9961 22.1816C48.5742 18.666 51.9727 16.6152 56.25 16C56.3672 15.9707 56.4844 15.9707 56.6309 15.9414C56.748 15.9414 56.8652 15.9121 56.9824 15.9121C57.1875 15.8828 57.3926 15.8828 57.5391 15.8828C57.5684 15.8828 57.5684 15.8828 57.5684 15.8828C57.7441 15.8828 57.9492 15.8535 58.1543 15.8535C59.7656 15.8535 61.3184 16.1172 62.8711 16.6445C62.8711 16.6445 62.8711 16.6445 62.9004 16.6445C62.9883 16.6738 63.1055 16.7324 63.1934 16.7617H63.2227C63.2227 16.7617 63.252 16.7617 63.252 16.791C63.3398 16.8203 63.457 16.8496 63.5449 16.8789C63.5742 16.9082 63.5742 16.9082 63.5742 16.9082H63.6035C63.9551 17.0547 64.2773 17.2012 64.5996 17.3477C64.7168 17.4062 64.8047 17.4648 64.8926 17.4941H64.9805V17.5527C65.127 17.6113 65.2734 17.6992 65.3906 17.7871L65.4492 17.8164C65.5371 17.8457 65.625 17.9043 65.7129 17.9629H65.7422C65.8594 18.0508 66.0059 18.1387 66.1523 18.2266C66.1523 18.2266 66.1816 18.2559 66.2109 18.2559C66.2109 18.2559 66.2109 18.2852 66.2402 18.2852C66.3574 18.373 66.4746 18.4609 66.6211 18.5488L66.6797 18.5781C66.6797 18.5781 66.709 18.6074 66.7383 18.6074C66.7383 18.6367 66.7676 18.6367 66.7676 18.666C66.8555 18.6953 66.9434 18.7539 67.002 18.8125C67.793 19.3984 68.5254 20.0723 69.1699 20.8047L69.1992 20.834C69.3164 20.9512 69.4336 21.0977 69.5215 21.2148L69.5508 21.2441C69.6094 21.332 69.6973 21.4199 69.7559 21.4785L69.7852 21.5078V21.5371C69.9023 21.6836 69.9902 21.8008 70.0781 21.918C70.1953 22.0645 70.3125 22.2109 70.4004 22.3574C70.459 22.4453 70.5176 22.5332 70.5762 22.6211C70.6641 22.7383 70.7227 22.8555 70.7812 22.9727C70.8105 22.9727 70.8105 22.9727 70.8105 22.9727C70.8691 23.0898 70.957 23.2363 71.0156 23.3535C71.1035 23.5 71.1621 23.6172 71.25 23.7344C71.2793 23.793 71.3086 23.8516 71.3379 23.9102C71.3379 23.9102 71.3379 23.9102 71.3379 23.9395C72.4805 26.166 73.0371 28.4805 73.0371 30.9414C73.0371 32.0547 72.9199 33.1973 72.6562 34.3105V34.3984ZM60.0879 23.1484C59.9121 23.0898 59.7656 23.0605 59.5898 23.0312C59.1211 22.9434 58.6523 22.9141 58.1836 22.9141C56.6602 22.9141 55.2832 23.2949 54.0234 24.0566C52.7637 24.8184 51.7676 25.873 51.0645 27.2207H65.3027C65.0098 26.6934 64.7168 26.2246 64.3652 25.8145C64.3652 25.7852 64.3359 25.7852 64.3359 25.7852C64.3359 25.7852 64.3359 25.7852 64.3359 25.7559C64.2773 25.7266 64.248 25.668 64.2188 25.6387L64.1895 25.6094L64.1602 25.5801C64.1309 25.5215 64.0723 25.4922 64.0137 25.4336C64.0137 25.4336 64.0137 25.4336 64.0137 25.4043H63.9844C63.9258 25.3457 63.8965 25.2871 63.8379 25.2285C63.8379 25.2285 63.8379 25.2285 63.8086 25.2285C63.8086 25.2285 63.8086 25.2285 63.8086 25.1992C63.75 25.1699 63.6914 25.1113 63.6328 25.0527C63.6328 25.0527 63.6328 25.0527 63.6328 25.0234C63.5742 24.9941 63.4863 24.9355 63.4277 24.877C63.3691 24.8184 63.2812 24.7598 63.2227 24.7012C62.373 23.998 61.4062 23.5 60.3516 23.207C60.2637 23.1777 60.1758 23.1484 60.0879 23.1484ZM63.6621 36.7715L61.3477 34.3984H50.9766L51.0059 34.4277H50.9473C51.6504 35.8047 52.6465 36.918 53.9355 37.709C55.2246 38.5293 56.6602 38.9395 58.1836 38.9395C60.2344 38.9395 62.0508 38.207 63.6621 36.7715ZM102.979 13.0117V15.7949H105.732V16.0293H102.979V45.7656H105.732V46H102.979V48.6953H102.744V46H96.2402V48.5781H96.0059V46H93.3398V45.7656H96.0059V44.7402C94.2188 45.4727 92.4023 45.8242 90.5566 45.8242C87.832 45.8242 85.3711 45.1504 83.1445 43.8027C80.918 42.4258 79.1309 40.6094 77.8125 38.3535C76.4941 36.0684 75.8203 33.5488 75.8203 30.7656C75.8203 28.0117 76.4941 25.4922 77.8125 23.207C79.1309 20.9219 80.918 19.1055 83.1445 17.7578C85.3711 16.4102 87.832 15.707 90.5566 15.707C91.4941 15.707 92.4316 15.8242 93.3398 16V15.7949H96.0059V13.1289H96.2402V15.7949H102.744V13.0117H102.979ZM96.0059 36.9473V24.8477C94.4238 23.5 92.666 22.8555 90.7617 22.8555C88.5645 22.8555 86.6602 23.6465 85.0781 25.1992C83.5254 26.7812 82.7344 28.6855 82.7344 30.8828C82.7344 33.1094 83.5254 34.9844 85.0781 36.5664C86.6602 38.1484 88.5645 38.9102 90.7617 38.9102C92.666 38.9102 94.4238 38.2656 96.0059 36.9473ZM96.0059 16.0293H93.5156C94.3652 16.2051 95.1855 16.4688 96.0059 16.791V16.0293ZM125.039 38.9395V38.9688H127.705V39.2031H125.039V45.7656H127.705V46H125.039V48.6953H124.805V46H122.373V46.0293L122.256 46H122.139L120.234 45.8242L118.301 45.2383L116.572 44.2422L114.932 42.9824L113.701 41.4297L112.734 39.584L112.178 37.6504L112.002 35.9512L111.973 35.7168V22.8848H109.453V25.5508H109.219V22.8848H106.465V22.6504H109.219V16.0586H106.465V15.8242H109.219V13.041H109.453V15.8242H111.973V4.33984H109.307V4.10547H111.973V1.41016H112.207V4.10547H118.711V1.41016H118.945V4.10547H118.975H121.699V4.33984H118.975V15.8242H123.193V13.041H123.428V15.8242H126.064V16.0586H123.428V22.6504H126.064V22.8848H123.428V25.5508H123.193V22.8848H118.975V35.7168L119.062 36.2148L119.15 36.625L119.268 36.8887L119.59 37.5625L120.352 38.2949L121.26 38.7637L122.285 38.9395H124.805V36.2734H125.039V38.9395ZM156.152 27.0449V45.7656H158.818V46H156.152V48.6953H155.918V46H149.355V48.6953H149.121V46H146.455V45.7656H149.121V26.6348L149.062 25.668L149.033 25.4336L148.975 25.3164L148.477 24.3203L147.656 23.4707L147.393 23.3242L146.631 22.9141L146.045 22.8262L145.43 22.709L143.73 22.8262L142.148 23.3828L140.625 24.2324L139.307 25.375L138.193 26.6934V45.7656H140.947V46H138.193V48.6953H137.959V46H131.514V48.6953H131.279V46H128.496V45.7656H131.279V4.07617H128.496V3.8418H131.279V1.14648H131.514V3.8418H137.959V1.14648H138.193V3.8418H140.947V4.07617H138.193V17.4062L140.449 16.498L142.939 15.7949L145.4 15.6191H145.43L147.568 15.7949L149.707 16.498L151.611 17.582L152.783 18.6074L153.252 19.0469L153.281 19.0762L153.311 19.1055L154.629 20.8047L155.479 22.7676L156.064 24.9062L156.152 26.9277V26.9863V27.0449ZM182.871 22.4453L182.9 22.6797L180.205 22.709V25.375V25.7559H179.971V25.375V22.709L179.033 22.7383L174.932 22.7676C174.287 22.9141 173.701 23.1191 173.145 23.4121C172.822 23.5879 172.5 23.7637 172.236 23.9688C171.299 24.7012 170.625 25.4922 170.215 26.3418C169.775 27.2207 169.482 27.9531 169.365 28.5977C169.248 29.2422 169.189 29.5938 169.219 29.623V45.7656H171.885V46H169.219H169.189V48.6953H168.955V46H162.393V48.6953H162.158V46H159.492V45.7656H162.158V15.8242H159.492V15.5898H162.158V12.7773H162.393V15.5898H168.955V12.7773H169.189V15.5898H171.885V15.8242H169.219V17.5234V17.5527C169.453 17.377 169.805 17.1133 170.332 16.8203C170.859 16.5273 171.504 16.2637 172.266 16.0293L172.383 16H172.412C172.441 15.9707 172.471 15.9707 172.5 15.9707C172.91 15.8535 173.35 15.7949 173.76 15.7656C174.229 15.7363 175.049 15.707 176.25 15.6777C176.309 15.6777 176.338 15.6777 176.396 15.6777C177.48 15.6484 178.682 15.6484 179.971 15.6191V12.7773H180.205V15.6191C180.938 15.5898 181.553 15.5898 182.051 15.5898C182.52 15.5898 182.754 15.5898 182.754 15.5898H182.871L182.9 15.8242H182.783C182.783 15.8242 182.52 15.8242 182.051 15.8242C181.553 15.8242 180.938 15.8242 180.205 15.8535V22.4746L182.871 22.4453ZM196.318 15.707C199.072 15.707 201.562 16.3809 203.818 17.7578C206.074 19.1055 207.891 20.9219 209.238 23.2363C210.586 25.5215 211.26 28.041 211.26 30.8242C211.26 32.4648 210.996 34.0176 210.498 35.5703V35.5996C210.498 35.5996 210.498 35.5996 210.498 35.6289C210.469 35.6582 210.469 35.6875 210.439 35.7461C210.439 35.8047 210.41 35.8633 210.381 35.9219C210.352 36.0098 210.322 36.127 210.293 36.2148C210.264 36.2734 210.264 36.3027 210.234 36.332V36.3906C210.205 36.4492 210.176 36.5078 210.146 36.5664C208.975 39.4375 207.158 41.7227 204.727 43.3926C202.324 45.0625 199.57 45.9414 196.523 46C196.494 46 196.494 46 196.494 46C196.436 46 196.377 46 196.318 46C196.26 46 196.201 46 196.172 46C192.1 45.9121 188.613 44.418 185.713 41.5176C182.842 38.4121 181.406 34.8672 181.406 30.8242C181.406 28.041 182.08 25.5215 183.428 23.2363C184.775 20.9219 186.562 19.1055 188.818 17.7578C191.074 16.3809 193.564 15.707 196.318 15.707ZM192.715 37.9727C192.773 38.002 192.832 38.0312 192.861 38.0605C192.891 38.0605 192.891 38.0605 192.891 38.0605C193.975 38.5879 195.117 38.8516 196.318 38.8516C198.135 38.8516 199.746 38.2949 201.182 37.1816C202.588 36.0684 203.555 34.6035 204.023 32.8164L204.053 32.7871C204.199 32.1426 204.287 31.498 204.287 30.8535C204.287 28.627 203.496 26.752 201.943 25.1699C200.391 23.6172 198.545 22.8262 196.348 22.8262C194.18 22.8262 192.305 23.6172 190.752 25.1699C189.199 26.752 188.438 28.627 188.438 30.8535C188.438 32.2598 188.789 33.6074 189.492 34.8379C190.195 36.0684 191.162 37.0645 192.422 37.7969C192.451 37.8262 192.51 37.8555 192.568 37.8848C192.627 37.9141 192.656 37.9434 192.715 37.9727ZM196.201 33.4902V31.0293H193.828V30.7949H196.201V28.3633H196.436V30.7949H198.779V31.0293H196.436V33.4902H196.201ZM228.369 15.707C231.123 15.707 233.613 16.3809 235.869 17.7578C238.125 19.1055 239.941 20.9219 241.289 23.2363C242.637 25.5215 243.311 28.041 243.311 30.8242C243.311 32.4648 243.047 34.0176 242.549 35.5703V35.5996C242.549 35.5996 242.549 35.5996 242.549 35.6289C242.52 35.6582 242.52 35.6875 242.49 35.7461C242.49 35.8047 242.461 35.8633 242.432 35.9219C242.402 36.0098 242.373 36.127 242.344 36.2148C242.314 36.2734 242.314 36.3027 242.285 36.332V36.3906C242.256 36.4492 242.227 36.5078 242.197 36.5664C241.025 39.4375 239.209 41.7227 236.777 43.3926C234.375 45.0625 231.621 45.9414 228.574 46C228.545 46 228.545 46 228.545 46C228.486 46 228.428 46 228.369 46C228.311 46 228.252 46 228.223 46C224.15 45.9121 220.664 44.418 217.764 41.5176C214.893 38.4121 213.457 34.8672 213.457 30.8242C213.457 28.041 214.131 25.5215 215.479 23.2363C216.826 20.9219 218.613 19.1055 220.869 17.7578C223.125 16.3809 225.615 15.707 228.369 15.707ZM224.766 37.9727C224.824 38.002 224.883 38.0312 224.912 38.0605C224.941 38.0605 224.941 38.0605 224.941 38.0605C226.025 38.5879 227.168 38.8516 228.369 38.8516C230.186 38.8516 231.797 38.2949 233.232 37.1816C234.639 36.0684 235.605 34.6035 236.074 32.8164L236.104 32.7871C236.25 32.1426 236.338 31.498 236.338 30.8535C236.338 28.627 235.547 26.752 233.994 25.1699C232.441 23.6172 230.596 22.8262 228.398 22.8262C226.23 22.8262 224.355 23.6172 222.803 25.1699C221.25 26.752 220.488 28.627 220.488 30.8535C220.488 32.2598 220.84 33.6074 221.543 34.8379C222.246 36.0684 223.213 37.0645 224.473 37.7969C224.502 37.8262 224.561 37.8555 224.619 37.8848C224.678 37.9141 224.707 37.9434 224.766 37.9727ZM228.252 33.4902V31.0293H225.879V30.7949H228.252V28.3633H228.486V30.7949H230.83V31.0293H228.486V33.4902H228.252Z" fill="white"/>
</svg>
